<svg width="700" height="700" viewBox="0 0 700 700" fill="none" xmlns="http://www.w3.org/2000/svg">
<path d="M232.08 476.729L232.085 476.734C274.358 517.824 309.205 551.5 379.496 551.5C408.882 551.5 431.524 544.334 449.188 532.902C466.892 521.444 479.973 505.453 489.806 487.253C509.597 450.623 515.791 405.966 520.216 373.741L520.295 373.164C521.376 365.282 522.383 357.928 523.49 351.541C528.557 322.17 539.548 288.388 549.078 259.094L549.147 258.881L549.147 258.881C554.099 243.663 558.465 230.238 561.602 218.894C564.776 207.414 566.5 198.703 566.5 192.74C566.5 176.436 552.995 164.987 542.444 164.987C527.773 164.987 514.987 174.054 507.75 191.787L488.506 252.568L512.369 193.466C514.034 189.342 516.952 183.496 521.65 178.591C526.448 173.582 533.305 169.38 542.444 169.38C545.105 169.38 547.587 170.367 549.541 171.505C551.592 172.699 553.565 174.351 555.285 176.329C558.72 180.28 561.505 185.962 561.505 192.74C561.505 199.348 559.191 209.234 556.11 220.086C552.963 231.168 548.741 244.152 544.449 257.351L544.421 257.436L544.421 257.437L544.421 257.437L544.343 257.677L544.342 257.678L544.342 257.678L544.342 257.679L544.336 257.697L544.33 257.717L544.329 257.718L544.329 257.718C534.53 287.838 523.636 321.361 518.545 350.881L518.544 350.885C517.429 357.327 516.395 364.838 515.252 373.205C515.252 373.205 515.252 373.206 515.252 373.207C515.252 373.207 515.252 373.207 515.252 373.208L232.08 476.729ZM232.08 476.729L224.743 469.615L224.736 469.607C182.314 428.611 152.057 396.174 148.95 392.843C148.795 392.677 148.707 392.583 148.689 392.564L148.605 392.477L148.517 392.392C132.422 376.85 132.391 350.902 149.052 334.809L149.055 334.806C157.122 327.003 167.822 322.696 179.255 322.696C190.532 322.696 201.098 326.892 209.128 334.493L232.32 364.514M232.08 476.729L232.32 364.514M232.32 364.514L205.72 337.728L205.675 337.684L205.63 337.64C198.623 330.853 189.179 327.089 179.255 327.089C169.306 327.089 159.869 330.866 152.745 337.759C137.951 352.06 137.751 375.361 152.441 389.681C153.139 390.431 161.408 399.3 173.983 412.281C187.372 426.102 206.225 445.199 228.418 466.653L228.424 466.658M232.32 364.514L228.424 466.658M228.424 466.658L235.781 473.786L235.785 473.791L235.79 473.795L235.815 473.819L235.817 473.821L235.817 473.822L236.21 474.203C277.089 513.928 311.226 547.101 379.496 547.101C407.132 547.101 429.172 540.5 446.737 529.202C464.268 517.926 476.937 502.232 486.277 484.655C504.722 449.946 510.623 406.943 515.178 373.746L515.248 373.236L515.248 373.235L515.25 373.221L515.25 373.219L515.251 373.215L228.424 466.658ZM265.179 400.398C270.692 397.541 274.04 391.624 273.334 385.307L273.334 385.305L243.533 119.521C243.689 113.534 245.688 108.882 248.601 105.77C251.54 102.628 255.748 100.679 261.044 100.679C265.831 100.679 269.339 101.439 271.963 103.683C274.573 105.913 277.565 110.71 278.634 121.707L265.179 400.398ZM265.179 400.398L266.332 408.541L261.149 401.832C256.053 402.892 250.617 401.382 246.831 397.575L246.828 397.572L196.543 346.937C192.025 342.582 185.866 340.089 179.255 340.089C172.637 340.089 166.453 342.584 161.784 347.102L161.782 347.104C152.155 356.409 152.151 371.321 161.59 380.445L161.673 380.525L161.753 380.608C161.801 380.658 161.983 380.853 162.294 381.184C166.646 385.836 196.239 417.465 237.459 457.311L237.464 457.316L244.836 464.459L244.841 464.464L244.846 464.468L244.872 464.493L244.873 464.494L244.875 464.496C285.969 504.43 316.724 534.101 379.496 534.101C404.972 534.101 424.502 528.047 439.705 518.268C454.942 508.468 466.237 494.663 474.798 478.555C492.058 446.074 497.736 405.223 502.367 371.481C502.367 371.481 502.367 371.481 502.367 371.481L265.179 400.398ZM406.173 206.165L421.008 123.509L421.008 123.509C421.921 118.424 423.975 111.078 428.789 104.875C433.827 98.3836 441.664 93.4769 453.031 93.4769C459.882 93.4769 466.016 95.8076 470.579 100.801C476.504 107.275 478.432 116.886 477.203 126.449L477.203 126.45C476.27 133.696 472.264 175.511 468.3 217.577C472.375 190.116 476.462 163.862 479.139 146.662C480.812 135.916 481.934 128.704 482.16 126.939L482.161 126.937C483.7 114.953 480.691 104.87 474.466 98.0617L406.173 206.165ZM406.173 206.165L416.099 122.64C419.993 101.318 434.22 89.0838 453.025 89.0838C461.722 89.0838 469.252 92.3622 474.465 98.0611L406.173 206.165ZM460.988 109.577L460.984 109.572C459.225 107.646 456.771 106.477 453.031 106.477C445.958 106.477 441.81 109.301 439.059 112.846C436.084 116.679 434.545 121.673 433.803 125.807L408.31 267.849C406.901 275.702 399.662 281.051 391.722 280.349C383.888 279.694 377.542 273.288 377.542 265.217V82.5896C377.542 72.7719 370.597 65.8989 361.548 65.8989C352.089 65.8989 344.804 73.1892 344.804 82.5896V82.6749L344.802 82.7601L339.547 282.997C339.344 290.937 333.033 297.141 325.319 297.757L325.272 297.76L325.225 297.764C317.624 298.26 310.408 293.338 308.848 285.53L308.847 285.524L308.847 285.524L308.79 285.238L460.988 109.577ZM460.988 109.577C463.521 112.344 465.227 117.645 464.309 124.79C462.375 139.817 447.757 297.655 446.642 309.694L446.64 309.717L446.595 310.207C445.876 317.918 451.129 324.709 458.52 326.387M460.988 109.577L458.52 326.387M458.52 326.387C465.822 328.066 473.566 324.315 476.437 317.181M458.52 326.387L476.437 317.181M476.437 317.181C476.438 317.18 476.438 317.179 476.439 317.178L476.437 317.181ZM531.967 253.698L538.148 255.707L531.967 253.697L531.967 253.698ZM230.567 120.547L249.627 290.536L225.542 120.401C225.539 120.361 225.537 120.316 225.537 120.269C225.537 98.8606 240.897 83.2861 261.05 83.2861C267.391 83.2861 275.424 84.5501 282.157 89.4531C288.656 94.1851 294.896 103 296.552 120.084L296.552 120.086C297.15 126.241 302.236 169.759 307.7 211.877C307.365 210.129 307.029 208.375 306.693 206.616C299.641 169.693 292.653 131.593 291.574 120.454L291.573 120.452C290.339 107.749 286.604 99.0957 280.411 93.8013C274.233 88.5195 266.862 87.6792 261.044 87.6792C252.333 87.6792 244.628 90.9886 239.109 96.8872C233.624 102.748 230.64 110.786 230.527 119.74L230.522 120.144L230.567 120.547ZM331.804 82.4997L329.104 185.414L326.809 82.294C326.846 63.5014 341.916 48.5 361.548 48.5C380.594 48.5 395.453 63.3183 395.538 82.4195L390.542 177.318V82.5896C390.542 65.9699 378.149 52.8989 361.548 52.8989C344.968 52.8989 331.852 65.9344 331.804 82.4997ZM502.371 371.45C502.371 371.452 502.371 371.453 502.37 371.455L502.371 371.45Z" fill="#27BEFF" stroke="black" stroke-width="13"/>
<rect x="68" y="42" width="579" height="616" stroke="black"/>
<line x1="156" y1="341" x2="156" y2="402" stroke="black" stroke-width="2"/>
<line x1="168.5" y1="416.003" x2="168.5" y2="333.997" stroke="black" stroke-width="2"/>
<line x1="183.495" y1="430.003" x2="183.495" y2="333.997" stroke="black" stroke-width="2"/>
<line x1="198" y1="443.009" x2="198" y2="330.991" stroke="black" stroke-width="2"/>
<line x1="213.5" y1="457.002" x2="213.5" y2="340.998" stroke="black" stroke-width="2"/>
<line x1="229" y1="467.009" x2="229" y2="360.991" stroke="black" stroke-width="2"/>
<line x1="242.973" y1="488.008" x2="242.973" y2="374.991" stroke="black" stroke-width="2"/>
<line x1="257" y1="506.018" x2="257" y2="393" stroke="black" stroke-width="2"/>
<line x1="271" y1="514" x2="271" y2="79" stroke="black" stroke-width="2"/>
<path d="M256 294L256 94" stroke="black" stroke-width="2"/>
<path d="M285 528.5L285 85.5" stroke="black" stroke-width="2"/>
<line x1="300" y1="536" x2="300" y2="136" stroke="black" stroke-width="2"/>
<path d="M314 543L314 243" stroke="black" stroke-width="2"/>
<line x1="328" y1="551" x2="328" y2="251" stroke="black" stroke-width="2"/>
<line x1="341" y1="549" x2="341" y2="59" stroke="black" stroke-width="2"/>
<path d="M356 555.034V47.0044" stroke="black" stroke-width="2"/>
<path d="M370.5 556.5L370.5 45.5" stroke="black" stroke-width="2"/>
<line x1="386" y1="553.002" x2="386" y2="53.0021" stroke="black" stroke-width="2"/>
<line x1="401.5" y1="553.009" x2="401.5" y2="253.009" stroke="black" stroke-width="2"/>
<line x1="415.473" y1="554.008" x2="415.473" y2="154.008" stroke="black" stroke-width="2"/>
<line x1="429.5" y1="543.018" x2="429.5" y2="430" stroke="black" stroke-width="2"/>
<line x1="443.5" y1="535" x2="443.5" y2="95" stroke="black" stroke-width="2"/>
<line x1="429.5" y1="514" x2="429.5" y2="94" stroke="black" stroke-width="2"/>
<line x1="457" y1="533" x2="457" y2="83" stroke="black" stroke-width="2"/>
<line x1="473" y1="308" x2="473" y2="517.005" stroke="black" stroke-width="2"/>
<line x1="486" y1="497" x2="486" y2="267" stroke="black" stroke-width="2"/>
<line x1="499" y1="475" x2="499" y2="235" stroke="black" stroke-width="2"/>
<line x1="515" y1="437" x2="515" y2="197" stroke="black" stroke-width="2"/>
<line x1="529" y1="344" x2="529" y2="167" stroke="black" stroke-width="2"/>
<path d="M542 296V160" stroke="black" stroke-width="2"/>
<line x1="448.004" y1="534" x2="305.004" y2="534" stroke="black" stroke-width="2"/>
<line x1="472" y1="521" x2="272" y2="521" stroke="black" stroke-width="2"/>
<line x1="485" y1="507" x2="265" y2="507" stroke="black" stroke-width="2"/>
<line x1="492" y1="493" x2="242" y2="493" stroke="black" stroke-width="2"/>
<line x1="490" y1="479" x2="230" y2="479" stroke="black" stroke-width="2"/>
<line x1="495" y1="465" x2="225" y2="465" stroke="black" stroke-width="2"/>
<line x1="500" y1="451" x2="210" y2="451" stroke="black" stroke-width="2"/>
<line x1="508" y1="437" x2="188" y2="437" stroke="black" stroke-width="2"/>
<line x1="509" y1="423" x2="169" y2="423" stroke="black" stroke-width="2"/>
<line x1="498" y1="409" x2="355" y2="409" stroke="black" stroke-width="2"/>
<line x1="511" y1="409" x2="161" y2="409" stroke="black" stroke-width="2"/>
<line x1="512" y1="396" x2="152" y2="396" stroke="black" stroke-width="2"/>
<line x1="524" y1="383" x2="144" y2="383" stroke="black" stroke-width="2"/>
<line x1="523.996" y1="369" x2="257.996" y2="368" stroke="black" stroke-width="2"/>
<line x1="225" y1="355" x2="138" y2="355" stroke="black" stroke-width="2"/>
<line x1="225" y1="368" x2="138" y2="368" stroke="black" stroke-width="2"/>
<line x1="524" y1="355" x2="264" y2="355" stroke="black" stroke-width="2"/>
<line x1="524" y1="342" x2="264" y2="342" stroke="black" stroke-width="2"/>
<line x1="523" y1="329" x2="253" y2="329" stroke="black" stroke-width="2"/>
<line x1="530" y1="315" x2="250" y2="315" stroke="black" stroke-width="2"/>
<line x1="456" y1="301" x2="253" y2="301" stroke="black" stroke-width="2"/>
<line x1="456" y1="287" x2="253" y2="287" stroke="black" stroke-width="2"/>
<line x1="461" y1="274" x2="333" y2="274" stroke="black" stroke-width="2"/>
<path d="M463 259H396" stroke="black" stroke-width="2"/>
<line x1="546" y1="245" x2="496" y2="245" stroke="black" stroke-width="2"/>
<line x1="546" y1="259" x2="496" y2="259" stroke="black" stroke-width="2"/>
<line x1="542" y1="273" x2="492" y2="273" stroke="black" stroke-width="2"/>
<line x1="534" y1="287" x2="484" y2="287" stroke="black" stroke-width="2"/>
<line x1="530" y1="301" x2="480" y2="301" stroke="black" stroke-width="2"/>
<line x1="551" y1="231" x2="501" y2="231" stroke="black" stroke-width="2"/>
<line x1="559" y1="217" x2="509" y2="217" stroke="black" stroke-width="2"/>
<line x1="564" y1="203" x2="514" y2="203" stroke="black" stroke-width="2"/>
<line x1="571" y1="189" x2="521" y2="189" stroke="black" stroke-width="2"/>
<line x1="467" y1="245" x2="397" y2="245" stroke="black" stroke-width="2"/>
<line x1="471" y1="231" x2="401" y2="231" stroke="black" stroke-width="2"/>
<line x1="473" y1="218" x2="403" y2="218" stroke="black" stroke-width="2"/>
<line x1="472" y1="204" x2="408" y2="204" stroke="black" stroke-width="2"/>
<line x1="312" y1="191" x2="236" y2="191" stroke="black" stroke-width="2"/>
<line x1="312" y1="205" x2="236" y2="205" stroke="black" stroke-width="2"/>
<line x1="312" y1="219" x2="236" y2="219" stroke="black" stroke-width="2"/>
<line x1="314" y1="233" x2="238" y2="233" stroke="black" stroke-width="2"/>
<line x1="314" y1="260" x2="241" y2="260" stroke="black" stroke-width="2"/>
<line x1="315" y1="246" x2="242" y2="246" stroke="black" stroke-width="2"/>
<line x1="314" y1="274" x2="243" y2="274" stroke="black" stroke-width="2"/>
<line x1="305" y1="177" x2="229" y2="177" stroke="black" stroke-width="2"/>
<line x1="305" y1="163" x2="229" y2="163" stroke="black" stroke-width="2"/>
<line x1="305" y1="149" x2="229" y2="149" stroke="black" stroke-width="2"/>
<line x1="305" y1="135" x2="229" y2="135" stroke="black" stroke-width="2"/>
<line x1="300" y1="121" x2="224" y2="121" stroke="black" stroke-width="2"/>
<line x1="296" y1="107" x2="224" y2="107" stroke="black" stroke-width="2"/>
<line x1="291" y1="93" x2="230" y2="93" stroke="black" stroke-width="2"/>
<line x1="473" y1="191" x2="403" y2="191" stroke="black" stroke-width="2"/>
<line x1="473" y1="177" x2="408" y2="177" stroke="black" stroke-width="2"/>
<line x1="473" y1="163" x2="413" y2="163" stroke="black" stroke-width="2"/>
<line x1="396" y1="149" x2="336" y2="149" stroke="black" stroke-width="2"/>
<line x1="394" y1="163" x2="334" y2="163" stroke="black" stroke-width="2"/>
<line x1="391" y1="177" x2="331" y2="177" stroke="black" stroke-width="2"/>
<line x1="391" y1="191" x2="331" y2="191" stroke="black" stroke-width="2"/>
<line x1="393" y1="205" x2="333" y2="205" stroke="black" stroke-width="2"/>
<line x1="392" y1="219" x2="332" y2="219" stroke="black" stroke-width="2"/>
<line x1="392" y1="232" x2="332" y2="232" stroke="black" stroke-width="2"/>
<line x1="393" y1="246" x2="333" y2="246" stroke="black" stroke-width="2"/>
<line x1="390" y1="260" x2="330" y2="260" stroke="black" stroke-width="2"/>
<line x1="396" y1="135" x2="336" y2="135" stroke="black" stroke-width="2"/>
<line x1="393" y1="121" x2="333" y2="121" stroke="black" stroke-width="2"/>
<line x1="393" y1="107" x2="333" y2="107" stroke="black" stroke-width="2"/>
<line x1="393" y1="93" x2="333" y2="93" stroke="black" stroke-width="2"/>
<line x1="393" y1="80" x2="333" y2="80" stroke="black" stroke-width="2"/>
<line x1="393" y1="66" x2="333" y2="66" stroke="black" stroke-width="2"/>
<line x1="473" y1="149" x2="413" y2="149" stroke="black" stroke-width="2"/>
<line x1="480" y1="135" x2="420" y2="135" stroke="black" stroke-width="2"/>
<line x1="482" y1="121" x2="422" y2="121" stroke="black" stroke-width="2"/>
<line x1="482" y1="107" x2="422" y2="107" stroke="black" stroke-width="2"/>
</svg>
